<svg width="" height="47" viewBox="0 0 46 47" fill="none" xmlns="http://www.w3.org/2000/svg">
<g id="mdi:paw">
<path id="Vector" d="M16.0042 5.87501C18.2658 5.54209 20.6616 8.06834 21.3517 11.5542C22.0417 15.0204 20.7958 18.1146 18.5342 18.4671C16.2916 18.8196 13.8766 16.2933 13.1675 12.8075C12.4583 9.34126 13.7425 6.24709 16.0042 5.87501ZM29.7083 5.87501C31.9891 6.24709 33.2542 9.34126 32.5833 12.8075C31.855 16.2933 29.4591 18.8196 27.1975 18.4671C24.9166 18.1146 23.6708 15.0204 24.38 11.5542C25.07 8.06834 27.4658 5.54209 29.7083 5.87501ZM5.74998 14.8833C7.93498 13.9238 10.9058 15.6667 12.4583 18.7021C13.915 21.7963 13.4166 25.0471 11.2508 26.0067C9.08498 26.9663 6.13332 25.2429 4.61915 22.1683C3.10498 19.0938 3.64165 15.8233 5.74998 14.8833ZM40.25 14.8833C42.3583 15.8233 42.895 19.0938 41.3808 22.1683C39.8666 25.2429 36.915 26.9663 34.7491 26.0067C32.5833 25.0471 32.085 21.7963 33.5416 18.7021C35.0942 15.6667 38.065 13.9238 40.25 14.8833ZM37.0491 35.9942C37.1258 37.835 35.7458 39.8717 34.0975 40.6354C30.6667 42.2413 26.6033 38.9121 22.7892 38.9121C18.975 38.9121 14.8733 42.3783 11.5 40.6354C9.58332 39.6758 8.26082 37.13 8.50998 35.015C8.85498 32.0971 12.2858 30.5304 14.3175 28.3958C17.02 25.6346 18.9367 20.445 22.7892 20.445C26.6225 20.445 28.6541 25.5563 31.2416 28.3958C33.3691 30.785 36.915 32.8021 37.0491 35.9942Z" fill="black"/>
</g>
</svg>
