<?xml version="1.0" standalone="no"?>
<!DOCTYPE svg PUBLIC "-//W3C//DTD SVG 20010904//EN"
 "http://www.w3.org/TR/2001/REC-SVG-20010904/DTD/svg10.dtd">
<svg version="1.0" xmlns="http://www.w3.org/2000/svg"
 width="752.000000pt" height="752.000000pt" viewBox="0 0 752.000000 752.000000"
 preserveAspectRatio="xMidYMid meet">
<metadata>
Created by potrace 1.14, written by Peter Selinger 2001-2017
</metadata>
<g transform="translate(0.000000,752.000000) scale(0.100000,-0.100000)"
fill="#000000" stroke="none">
<path d="M2618 6574 c-101 -24 -194 -81 -258 -161 -19 -24 -41 -50 -48 -58
-33 -38 -104 -199 -116 -268 -3 -12 -5 -23 -7 -24 -4 -6 -17 -80 -25 -143 -7
-56 -11 -252 -5 -264 2 -5 5 -25 7 -45 5 -62 19 -152 24 -158 3 -3 3 -6 14
-53 15 -69 68 -216 106 -295 92 -190 228 -356 364 -442 28 -18 57 -37 64 -43
6 -6 12 -9 12 -6 0 3 20 -4 45 -15 52 -23 70 -28 139 -35 28 -3 53 -7 57 -10
4 -2 10 0 14 6 4 6 10 8 14 5 14 -8 122 24 174 53 99 53 199 177 253 311 27
67 59 190 70 266 7 54 8 272 1 345 -4 51 -21 145 -26 153 -2 1 -4 15 -6 31 -5
38 -62 210 -88 266 -12 25 -21 47 -22 50 -3 17 -56 108 -106 180 -179 263
-438 404 -651 354z"/>
<path d="M4674 6574 c-296 -68 -564 -390 -669 -804 -23 -89 -26 -101 -30 -135
-3 -16 -9 -55 -14 -85 -5 -30 -8 -122 -6 -205 4 -175 2 -158 26 -260 28 -114
27 -113 82 -224 68 -139 204 -259 324 -287 69 -16 190 -11 258 10 192 59 394
256 515 501 8 17 19 33 25 37 5 4 7 8 3 8 -4 0 2 21 13 48 32 74 80 223 74
232 -3 5 -1 11 4 14 5 3 12 26 16 52 3 25 8 54 10 63 15 80 21 283 11 356 -3
22 -8 59 -11 81 -2 23 -9 53 -14 67 -5 14 -8 27 -6 29 10 9 -57 173 -105 258
-27 47 -130 160 -147 160 -7 0 -13 4 -13 9 0 14 -121 70 -161 75 -19 3 -34 5
-34 6 0 8 -112 3 -151 -6z"/>
<path d="M6329 5186 c-2 -2 -33 -6 -69 -10 -83 -8 -92 -10 -107 -19 -7 -5 -17
-5 -23 -2 -5 3 -10 1 -10 -5 0 -6 -4 -9 -8 -6 -8 5 -38 -7 -127 -52 -242 -119
-470 -382 -585 -672 -10 -25 -18 -49 -19 -55 -1 -5 -8 -30 -16 -55 -8 -25 -17
-60 -20 -79 -3 -19 -8 -37 -10 -41 -16 -25 -27 -307 -13 -347 4 -13 8 -39 10
-58 1 -20 6 -39 10 -41 4 -3 8 -15 8 -26 0 -12 18 -60 41 -107 31 -64 57 -102
104 -148 62 -61 156 -117 212 -128 15 -3 42 -8 58 -11 141 -30 339 27 518 148
67 46 216 189 263 253 16 22 31 42 35 45 15 13 101 162 127 220 50 111 55 125
58 138 1 8 6 21 10 30 4 9 8 22 9 27 2 6 8 30 15 55 7 25 13 52 15 60 12 65
17 108 20 172 2 40 4 78 5 83 1 6 1 12 0 15 -1 3 -3 23 -5 45 -12 131 -35 213
-91 312 -29 53 -100 134 -146 168 -48 35 -148 74 -207 80 -23 2 -45 7 -50 9
-4 3 -10 4 -12 2z"/>
<path d="M1110 5173 c-44 -8 -128 -42 -172 -69 -53 -33 -126 -110 -153 -161
-11 -21 -23 -40 -26 -43 -8 -5 -49 -122 -55 -155 -2 -11 -6 -32 -10 -48 -4
-22 -13 -122 -15 -172 0 -14 10 -125 15 -155 13 -83 19 -111 36 -165 50 -162
110 -289 204 -425 59 -87 219 -251 291 -300 28 -19 52 -36 55 -39 3 -3 34 -20
70 -38 266 -130 499 -111 670 55 123 120 189 305 184 522 -1 75 -8 153 -18
200 -4 19 -20 93 -21 100 -10 39 -19 67 -24 75 -3 6 -6 17 -8 25 -1 9 -10 34
-19 55 -10 22 -18 42 -19 45 -12 40 -77 151 -134 229 -25 35 -50 70 -56 78
-25 37 -164 169 -229 217 -160 118 -306 172 -466 173 -41 1 -86 -1 -100 -4z"/>
<path d="M3597 4235 c-26 -6 -50 -13 -52 -14 -3 0 -7 -2 -10 -2 -3 -1 -9 -3
-15 -4 -5 -1 -12 -4 -15 -5 -3 -1 -8 -3 -12 -4 -26 -6 -163 -79 -189 -101 -7
-5 -29 -23 -50 -40 -68 -53 -191 -183 -274 -288 -100 -127 -86 -109 -145 -192
-27 -38 -54 -73 -59 -77 -6 -4 -7 -8 -3 -8 4 0 3 -6 -3 -12 -34 -41 -110 -149
-110 -157 0 -5 -3 -11 -7 -13 -5 -1 -42 -48 -83 -103 -92 -123 -113 -148 -220
-255 -103 -103 -180 -170 -330 -289 -36 -28 -78 -62 -95 -76 -16 -13 -48 -39
-70 -57 -87 -71 -244 -238 -290 -307 -38 -60 -85 -148 -90 -171 -1 -3 -7 -25
-14 -50 -29 -102 -31 -202 -6 -350 13 -74 88 -270 108 -278 4 -2 7 -8 7 -12 0
-18 55 -95 126 -177 49 -56 154 -143 172 -143 6 0 12 -3 14 -7 9 -22 160 -79
238 -91 60 -9 234 -9 290 1 25 4 63 10 85 13 21 3 43 8 48 11 4 3 22 7 38 10
17 2 110 31 207 64 97 33 184 62 192 64 8 2 60 21 115 40 55 20 107 38 115 40
8 2 44 13 80 24 36 11 85 25 110 31 25 6 54 13 65 15 11 3 38 7 60 10 22 3 51
8 65 11 34 7 259 6 290 -1 14 -3 39 -8 55 -11 73 -12 167 -34 250 -59 119 -35
326 -104 347 -116 10 -5 24 -9 33 -9 8 0 29 -6 47 -14 87 -38 324 -101 413
-110 11 -1 25 -4 30 -8 6 -3 69 -6 140 -6 96 0 150 5 205 20 70 18 198 70 210
86 3 4 23 19 45 33 150 99 314 350 342 526 8 49 8 199 1 238 -44 233 -193 441
-543 760 -306 280 -391 366 -495 505 -14 18 -31 39 -37 46 -7 7 -13 17 -13 22
0 6 -4 12 -8 14 -5 2 -70 91 -145 198 -75 107 -140 200 -145 205 -4 6 -28 37
-52 70 -49 68 -130 166 -145 177 -5 4 -7 8 -4 8 15 0 -168 175 -234 224 -76
56 -172 110 -228 127 -120 38 -263 48 -352 24z"/>
</g>
</svg>
