<svg width="100" height="22" viewBox="0 0 100 22" fill="none" xmlns="http://www.w3.org/2000/svg">
<path d="M12.0721 15.907H9.17138V14.4208C8.85966 14.7977 7.69806 15.907 5.71284 15.907C2.36586 15.907 0 13.4013 0 9.82868C0 6.23488 2.18702 3.72754 5.534 3.72754C7.54219 3.72754 8.70215 4.83684 8.99255 5.23651V3.72754H12.0721V15.907ZM6.09183 6.4339C4.30678 6.4339 3.10252 7.83194 3.10252 9.84989C3.10252 11.9135 4.35272 13.2006 6.09183 13.2006C7.96549 13.2006 9.08115 11.6916 9.08115 9.84989C9.08115 7.67697 7.78665 6.4339 6.09183 6.4339Z" fill="#E52E6B"/>
<path d="M28.2442 15.6199H25.3435V14.4209C25.0318 14.7977 23.8702 15.907 21.885 15.907C18.538 15.907 16.1721 13.3997 16.1721 9.82871C16.1721 6.23491 18.3591 3.72757 21.7061 3.72757C23.7143 3.72757 24.8743 4.83687 25.1647 5.23654V0H28.2442V15.6199ZM22.2656 6.43393C20.4805 6.43393 19.2763 7.83197 19.2763 9.84992C19.2763 11.9135 20.5265 13.2006 22.2656 13.2006C24.1392 13.2006 25.2549 11.6917 25.2549 9.84992C25.2549 7.677 23.9604 6.43393 22.2656 6.43393Z" fill="#E52E6B"/>
<path d="M38.6166 3.72757C42.1867 3.72757 44.9086 6.34584 44.9086 9.85155C44.9086 13.3573 42.2753 15.9086 38.6166 15.9086C34.9792 15.9086 32.3459 13.3573 32.3459 9.85155C32.3459 6.323 35.0695 3.72757 38.6166 3.72757ZM38.6166 13.2006C40.4689 13.2006 41.8291 11.8254 41.8291 9.84992C41.8291 7.87439 40.4673 6.43393 38.6166 6.43393C36.7643 6.43393 35.4255 7.85318 35.4255 9.84992C35.4255 11.8254 36.7873 13.2006 38.6166 13.2006ZM33.6864 0H43.5682V2.24144H33.6864V0Z" fill="#E52E6B"/>
<path d="M49.0103 3.72754H50.2276V6.19083C50.5197 5.74711 51.8831 3.77322 54.9249 3.77322C58.5278 3.77322 61.0824 6.28056 61.0824 9.78626C61.0824 13.336 58.6 15.8646 55.0463 15.8646C52.1751 15.8646 50.6411 14.0897 50.2276 13.3801V22H49.0103V3.72754ZM55.0217 14.8205C57.7715 14.8205 59.8158 12.7357 59.8158 9.78463C59.8158 6.76669 57.6747 4.81563 54.9725 4.81563C52.0275 4.81563 50.1784 7.07827 50.1784 9.78463C50.1784 12.9788 52.3933 14.8205 55.0217 14.8205Z" fill="#E52E6B"/>
<path d="M70.9314 3.77148C74.3572 3.77148 76.5409 6.23478 76.5409 9.53984V10.0064H66.3785C66.3785 13.0684 68.4015 14.8433 71.253 14.8433C73.4597 14.8433 74.6787 13.8008 75.3678 12.8694L76.1258 13.38C75.3432 14.6002 73.8272 15.8645 71.2514 15.8645C67.7337 15.8645 65.1825 13.4468 65.1825 9.85142C65.1841 6.07817 67.8978 3.77148 70.9314 3.77148ZM75.3465 9.02923C75.2087 6.14506 73.1628 4.79106 70.9085 4.79106C68.7477 4.79106 66.6788 6.21031 66.4491 9.02923H75.3465Z" fill="#E52E6B"/>
<path d="M82.2062 0H83.4088V3.73246H87.225V4.77651H83.4088V11.5481C83.4088 14.168 84.0339 14.8418 85.9125 14.8418C86.1766 14.8418 87.225 14.8189 87.225 14.8189V15.863C87.225 15.863 85.8878 15.9086 85.4301 15.9086C83.4564 15.9086 82.2045 14.7259 82.2045 12.2904V4.77488H80.6639V3.73083H82.2045V0H82.2062Z" fill="#E52E6B"/>
<path d="M92.7737 12.8466C93.2593 13.8678 94.1584 14.8662 96.0288 14.8662C97.4611 14.8662 98.7737 14.0456 98.7737 12.6247C98.7737 9.51871 92.2651 10.5399 92.2651 6.74546C92.2651 4.9037 93.8926 3.77319 96.0304 3.77319C98.3618 3.77319 99.4316 5.1484 99.722 6.05867L98.7261 6.4143C98.3864 5.70468 97.7548 4.75035 95.9336 4.75035C94.5735 4.75035 93.4562 5.45998 93.4562 6.68021C93.4562 9.65247 99.9648 8.6329 99.9648 12.5823C99.9648 14.5122 98.265 15.8662 95.9812 15.8662C93.261 15.8662 92.2405 14.38 91.7302 13.2267L92.7737 12.8466Z" fill="#E52E6B"/>
</svg>
