<svg width="379" height="527" viewBox="0 0 379 527" fill="none" xmlns="http://www.w3.org/2000/svg">
<path d="M366.012 387.164C373.993 417.969 353.595 458.89 314.474 447.171L311.248 432.289C323.86 430.604 335.363 424.325 343.47 414.701C345.257 412.57 346.553 410.085 347.269 407.416C351.514 391.702 336.295 369.472 334.724 341.622C334.724 341.352 334.724 341.102 334.724 340.832C334.42 334.036 335.502 327.25 337.908 320.871C341.689 310.479 349.115 301.744 358.859 296.227C364.632 293.209 370.258 292.397 374.333 294.249C384.607 298.932 374.63 308.528 365.503 318.644C363.232 321.183 360.982 323.764 359.135 326.282C353.34 334.254 355.526 348.345 359.135 362.728C360.982 369.93 363.231 377.173 365.057 383.792C365.375 384.916 365.673 386.061 366.012 387.164Z" fill="#DBDBE8"/>
<path opacity="0.2" d="M366.012 387.164C373.993 417.969 353.595 458.89 314.474 447.171L311.248 432.289C323.86 430.604 335.363 424.325 343.47 414.701C345.257 412.57 346.553 410.085 347.269 407.416C351.514 391.702 336.295 369.472 334.724 341.622C334.724 341.352 334.724 341.102 334.724 340.832C334.42 334.036 335.502 327.25 337.908 320.871C341.689 310.479 349.115 301.744 358.859 296.227C364.632 293.209 370.258 292.397 374.333 294.249C384.607 298.932 374.63 308.528 365.503 318.644C363.232 321.183 360.982 323.764 359.135 326.282C353.34 334.254 355.526 348.345 359.135 362.728C360.982 369.93 363.231 377.173 365.057 383.792C365.375 384.916 365.673 386.061 366.012 387.164Z" fill="#474B70"/>
<path d="M365.417 318.644C365.269 309.548 373.696 301.305 373.696 301.305C364.632 300.931 360.408 297.913 358.837 296.227C364.611 293.209 370.236 292.397 374.311 294.249C384.521 298.932 374.502 308.528 365.417 318.644Z" fill="#474B70"/>
<path d="M334.639 340.894C334.335 334.099 335.417 327.312 337.823 320.933C341.32 323.618 343.734 327.43 344.637 331.694C345.274 336.211 339.182 339.229 334.639 340.894Z" fill="#474B70"/>
<path d="M365.057 383.792C360.917 383.313 355.717 381.711 353.743 376.903C351.493 371.408 355.865 365.892 359.134 362.728C360.981 370.034 363.231 377.173 365.057 383.792Z" fill="#474B70"/>
<path d="M350.792 418.115C348.988 421.299 343.193 420.55 338.863 419.447C340.484 417.961 342.008 416.376 343.427 414.701C345.214 412.57 346.51 410.085 347.226 407.416C350.134 409.685 353.276 413.744 350.792 418.115Z" fill="#474B70"/>
<path d="M318.74 439.928C318.294 444.403 317.636 449.066 316.766 453.999C316.002 458.307 315.047 462.782 313.9 467.465L255.612 477.873L249.796 470.275C249.796 470.275 245.678 509.552 227.742 510.655C205.921 512.008 197.43 511.071 196.05 502.933C196.05 502.704 196.05 502.496 196.05 502.267C195.792 498.581 196.425 494.886 197.897 491.485C197.897 491.485 170.939 497.729 146.359 494.128C135.745 492.609 125.769 489.279 118.403 482.93C93.8653 461.7 99.0446 426.545 102.568 414.243C102.568 414.243 94.0776 405.127 88.4313 387.851C86.902 383.255 85.7311 378.551 84.9288 373.781C81.6175 354.756 82.8062 329.342 96.4974 298.267C97.6861 295.581 98.9597 292.855 100.339 290.107C127.701 235.095 205.857 231.037 224.451 230.87C227.02 230.87 228.463 230.87 228.463 230.87C229.347 231.907 230.163 232.999 230.904 234.138C231.52 235.075 232.22 236.219 233.027 237.551C235.253 241.54 237.1 245.72 238.546 250.04C239.119 251.768 239.692 253.62 240.202 255.556C240.902 258.199 241.518 261.051 242.006 264.11C243.674 274.696 243.796 285.461 242.367 296.081C242.367 296.081 245.508 298.87 249.966 303.678C253.721 307.739 257.263 311.983 260.579 316.396C263.671 320.555 266.506 324.892 269.07 329.384C271.694 333.943 273.916 338.713 275.714 343.642C276.609 346.104 277.367 348.612 277.985 351.155C277.985 351.155 292.355 355.86 304.2 372.074C306.975 375.833 309.344 379.865 311.268 384.104C314.446 391.003 316.687 398.281 317.934 405.751C318.835 410.926 319.36 416.156 319.504 421.404C319.645 427.588 319.39 433.775 318.74 439.928Z" fill="#DBDBE8"/>
<path d="M205.007 457.058C204.305 468.87 201.719 480.5 197.344 491.527C193.672 492.338 168.964 497.376 146.273 494.087C134.513 487.634 124.664 476.603 121.926 457.933C113.966 403.816 131.478 343.267 162.872 341.373C186.37 339.916 198.957 372.594 201.929 381.607C203.564 396.697 206.641 430.395 205.007 457.058Z" fill="#FFE5EE"/>
<path d="M234.088 261.488C233.932 262.556 233.741 263.597 233.515 264.61C233.515 264.797 233.515 264.943 233.409 265.11C233.133 266.317 232.814 267.462 232.411 268.669C231.682 270.934 230.759 273.134 229.652 275.246C229.312 275.912 228.93 276.578 228.548 277.328C226.941 280.017 225.071 282.548 222.965 284.883C168.986 326.99 101.188 301.534 101.188 301.534C99.5022 300.607 97.9038 299.535 96.4121 298.329L96.03 298.017L94.8201 296.976C92.253 294.599 90.0381 291.88 88.2399 288.9C87.964 288.442 87.7092 287.964 87.4333 287.464C86.8975 286.527 86.4155 285.561 85.9898 284.571C85.3241 283.216 84.736 281.827 84.228 280.408C83.9096 279.492 83.5912 278.597 83.2941 277.661C82.9332 276.349 82.5936 275.038 82.2964 273.727C81.9031 271.968 81.6125 270.189 81.4261 268.398C81.2709 267.217 81.1788 266.029 81.1501 264.839C81.0432 262.498 81.1284 260.152 81.4049 257.825C81.4049 257.054 81.5747 256.305 81.7021 255.556C81.8294 254.807 81.978 254.016 82.1478 253.245C82.7346 250.687 83.5369 248.181 84.5464 245.752C86.3171 241.649 88.6993 237.826 91.6149 234.409C90.8465 233.598 90.1372 232.736 89.4923 231.828C88.7811 230.793 88.1496 229.707 87.6031 228.581C81.8506 216.779 85.6502 201.918 89.7257 201.043C90.2208 200.937 90.7259 200.881 91.2328 200.877C96.221 200.877 102.037 205.56 107.068 212.179C109.194 214.818 111.901 216.952 114.985 218.423C118.721 216.966 122.754 215.509 127.042 214.26C130.247 213.282 133.601 212.387 137.04 211.555C138.42 211.201 139.842 210.888 141.285 210.576C147.779 209.149 154.348 208.072 160.962 207.35C162.66 207.163 164.316 206.996 166.014 206.871C170.408 206.559 174.781 206.413 179.005 206.476C182.083 206.476 185.097 206.684 188.005 206.975C190.404 194.487 203.246 185.787 207.109 187.41L207.364 187.535C212.161 189.741 214.517 197.359 214.772 206.268C215.247 211.35 217.232 216.185 220.482 220.172C222.821 222.56 224.899 225.184 226.68 227.998C227.274 228.934 227.847 229.913 228.378 230.891C228.909 231.869 229.524 233.076 230.012 234.221C230.157 234.491 230.285 234.769 230.395 235.054C230.861 236.095 231.265 237.135 231.647 238.238L231.838 238.759C232.263 240.028 232.666 241.319 232.984 242.609C233.001 242.685 233.001 242.763 232.984 242.838C233.239 243.921 233.494 244.92 233.706 246.085C233.717 246.21 233.717 246.335 233.706 246.46C233.923 247.631 234.079 248.812 234.173 249.998C234.173 250.477 234.279 250.935 234.3 251.393C234.603 254.756 234.532 258.14 234.088 261.488Z" fill="#DBDBE8"/>
<path d="M188.579 216.945C183.187 199.482 202.249 185.12 207.173 187.16L207.449 187.285C205.833 188.716 204.558 190.479 203.714 192.447C202.255 196 201.582 199.817 201.739 203.645C201.846 212.762 196.475 216.134 192.081 216.945C190.924 217.155 189.737 217.155 188.579 216.945Z" fill="#474B70"/>
<path d="M87.5816 228.268C88.0445 229.447 88.6888 230.549 89.4921 231.536C90.9598 233.11 92.8698 234.223 94.9814 234.734C97.093 235.245 99.3116 235.132 101.358 234.409C108.087 231.078 94.7562 220.463 90.9142 210.222C90.1988 208.696 89.8534 207.028 89.905 205.349C89.9565 203.67 90.4037 202.025 91.2114 200.544C90.7121 200.557 90.215 200.613 89.7255 200.71C85.65 201.626 81.8292 216.488 87.5816 228.268Z" fill="#474B70"/>
<path d="M93.7163 226.416C92.5058 228.794 92.2046 231.519 92.8672 234.096C94.1562 234.795 95.5904 235.198 97.0612 235.273C98.5321 235.349 100.001 235.096 101.358 234.533C108.087 231.203 94.7564 220.588 90.9143 210.347C90.2693 214.173 90.9493 218.101 92.846 221.504C92.846 221.504 89.2162 219.568 88.6006 220.234C87.9851 220.9 92.1455 223.835 92.379 224.001C92.1879 224.001 89.9804 223.106 89.5346 224.001C89.0889 224.896 93.7163 226.416 93.7163 226.416Z" fill="white"/>
<path d="M192.081 216.945C186.477 207.392 196.156 202.854 196.156 202.854C196.156 202.854 193.694 202.438 194.034 200.96C194.373 199.482 196.687 200.731 196.878 200.835C197.069 200.939 195.541 198.587 195.923 197.692C196.305 196.797 198.045 198.816 198.045 198.816C198.404 197.395 199.101 196.077 200.079 194.97C201.056 193.863 202.287 192.998 203.67 192.447C202.211 196.001 201.539 199.817 201.696 203.645C201.845 212.762 196.475 216.217 192.081 216.945Z" fill="white"/>
<path d="M102.568 276.765C100.318 280.179 96.0943 281.698 92.2735 282.822C90.1508 283.426 88.0282 283.988 85.9055 284.425C85.2435 283.033 84.6554 281.609 84.1437 280.158C83.8253 279.242 83.5069 278.305 83.2309 277.369C82.8489 276.078 82.488 274.767 82.212 273.456C81.8187 271.704 81.5282 269.932 81.3418 268.148C81.6905 268.289 82.0533 268.394 82.4243 268.46C85.2788 268.908 88.1878 268.908 91.0423 268.46C93.6498 267.953 96.3245 267.869 98.9599 268.211C100.198 268.369 101.344 268.938 102.205 269.825C103.067 270.711 103.592 271.861 103.693 273.081C103.709 274.393 103.317 275.678 102.568 276.765Z" fill="#474B70"/>
<path d="M86.1595 263.174C84.5737 263.887 82.8831 264.35 81.15 264.547C81.0433 262.213 81.1285 259.875 81.4048 257.554C81.4048 256.784 81.5746 256.034 81.7019 255.306C81.8293 254.577 81.9779 253.724 82.1477 252.975C85.0133 253.849 88.6643 252.975 90.8718 255.243C91.4499 255.79 91.7854 256.538 91.8058 257.325C91.9756 260.26 88.6218 262.05 86.1595 263.174Z" fill="#474B70"/>
<path d="M98.3866 293.021C97.3347 294.421 96.1398 295.711 94.8204 296.872C92.2484 294.491 90.0331 291.765 88.2402 288.775C90.7829 288.522 93.2571 287.816 95.5421 286.694C96.2359 286.312 96.9889 286.045 97.771 285.903C98.1312 285.906 98.4867 285.984 98.8143 286.131C99.1419 286.278 99.4343 286.491 99.6725 286.756C99.9107 287.021 100.089 287.332 100.197 287.669C100.305 288.006 100.339 288.362 100.297 288.713C100.095 290.299 99.432 291.795 98.3866 293.021Z" fill="#474B70"/>
<path d="M153.746 224.543C153.746 224.543 156.845 220.38 158.925 220.879C161.005 221.379 157.906 226.353 154.064 227.727C154.064 227.727 147.272 224.98 148.609 222.066C149.946 219.152 153.746 224.543 153.746 224.543Z" fill="#474B70"/>
<path d="M165.612 253.474C164.721 251.185 163.787 248.916 162.874 246.647L160.114 239.862L157.206 233.097C156.23 230.849 155.275 228.581 154.277 226.333L153.768 225.209L153.407 226.374C152.706 228.643 152.091 230.891 151.539 233.18C150.987 235.47 150.456 237.76 150.053 240.07C149.65 242.38 149.31 244.691 149.055 247.022C148.829 249.36 148.73 251.709 148.758 254.057C148.907 251.705 149.14 249.395 149.48 247.084C149.819 244.774 150.244 242.484 150.732 240.195C151.751 235.637 152.855 231.078 154.277 226.645H153.428C154.383 228.914 155.423 231.141 156.4 233.389L159.414 240.112L162.513 246.814C163.489 249.062 164.529 251.393 165.612 253.474Z" fill="#474B70"/>
<path opacity="0.48" d="M161.429 227.644C162.806 227.955 164.102 228.541 165.238 229.364C166.374 230.188 167.324 231.232 168.031 232.431C169.293 234.254 170.025 236.38 170.148 238.58C170.272 240.78 169.782 242.972 168.731 244.92C167.318 247.014 165.235 248.588 162.809 249.395C158.564 251.018 154.106 252.288 149.479 251.06C147.711 250.634 146.073 249.799 144.703 248.625C142.371 246.327 140.987 243.266 140.818 240.028C140.526 236.871 141.518 233.729 143.578 231.286C146.067 228.964 149.375 227.674 152.811 227.686C155.672 227.328 158.566 227.314 161.429 227.644Z" fill="#474B70"/>
<path opacity="0.48" d="M117.384 249.478C118.164 249.828 118.839 250.368 119.346 251.045C119.853 251.723 120.174 252.517 120.281 253.351C120.387 254.185 120.274 255.032 119.953 255.811C119.632 256.59 119.113 257.276 118.446 257.804C114.094 261.217 105.179 261.737 100.552 258.595C99.749 257.965 99.1254 257.143 98.7408 256.208C98.3562 255.273 98.2236 254.257 98.3559 253.257C98.4881 252.257 98.8807 251.308 99.4958 250.5C100.111 249.692 100.928 249.054 101.868 248.645C105.03 247.509 108.445 247.222 111.759 247.813C113.714 248.065 115.614 248.627 117.384 249.478Z" fill="#F25786"/>
<path opacity="0.48" d="M206.812 235.928C207.761 236.126 208.654 236.529 209.425 237.107C210.196 237.686 210.826 238.425 211.269 239.273C211.712 240.12 211.958 241.053 211.987 242.004C212.016 242.956 211.829 243.902 211.439 244.774C208.977 249.936 201.059 253.453 195.477 251.559C190.765 249.957 189.576 243.109 192.335 240.299C194.696 238.042 197.73 236.583 200.996 236.136C202.904 235.712 204.877 235.641 206.812 235.928Z" fill="#F25786"/>
<path d="M224.664 243.192C218.796 242.491 212.868 242.415 206.982 242.963C212.853 243.636 218.778 243.713 224.664 243.192Z" fill="#474B70"/>
<path d="M224.43 235.969C221.573 236.279 218.738 236.759 215.94 237.406C213.139 238.014 210.38 238.8 207.683 239.758C210.54 239.449 213.376 238.969 216.173 238.321C218.971 237.699 221.728 236.914 224.43 235.969Z" fill="#474B70"/>
<path d="M220.588 227.935C218.14 229.432 215.787 231.072 213.54 232.847C211.3 234.603 209.173 236.494 207.172 238.509C212.048 235.472 216.575 231.927 220.672 227.935H220.588Z" fill="#474B70"/>
<path d="M106.241 254.203C100.278 254.573 94.372 255.564 88.6226 257.158C94.5854 256.788 100.491 255.797 106.241 254.203Z" fill="#474B70"/>
<path d="M87.71 250.061C93.3598 251.059 99.1036 251.449 104.84 251.226C99.19 250.229 93.4462 249.838 87.71 250.061Z" fill="#474B70"/>
<path d="M90.5962 241.548C95.1605 244.851 100.087 247.644 105.285 249.873C103.014 248.204 100.639 246.674 98.1741 245.294C95.7272 243.897 93.1966 242.646 90.5962 241.548Z" fill="#474B70"/>
<path d="M118.212 251.726C121.159 251.28 123.976 250.23 126.482 248.645C128.987 247.06 131.124 244.975 132.752 242.526C133.324 241.553 133.719 240.489 133.92 239.383C134.23 236.874 133.964 234.329 133.142 231.934C132.319 229.539 130.96 227.355 129.165 225.542L128.932 225.292C127.067 223.549 124.784 222.295 122.295 221.648C119.805 221 117.189 220.979 114.689 221.587C108.597 222.961 101.783 227.29 100.764 233.264C100.393 235.745 100.693 238.279 101.634 240.611C104.075 247.084 110.677 252.725 118.212 251.726Z" fill="white"/>
<path d="M112.651 251.393C110.903 250.864 109.259 250.047 107.79 248.978C106.348 247.932 105.056 246.699 103.948 245.315C102.858 243.935 101.965 242.416 101.295 240.799V240.59L101.507 240.445L101.38 240.819C100.718 239.248 100.317 237.582 100.191 235.886C100.053 234.124 100.344 232.355 101.04 230.724C102.69 227.396 105.423 224.7 108.809 223.065C110.486 222.164 112.268 221.465 114.116 220.983C115.997 220.494 117.95 220.325 119.889 220.484C123.694 220.748 127.254 222.422 129.845 225.167C131.884 227.417 133.34 230.116 134.09 233.035C134.471 234.468 134.642 235.946 134.599 237.427C134.571 238.939 134.216 240.429 133.559 241.798C132.857 243.17 131.932 244.421 130.821 245.503C129.722 246.614 128.497 247.598 127.17 248.437C124.509 250.187 121.487 251.339 118.319 251.809C116.421 252.084 114.486 251.942 112.651 251.393ZM127 248.333C129.585 246.686 131.65 244.365 132.965 241.631C133.53 240.316 133.791 238.894 133.729 237.468C133.698 236.055 133.462 234.653 133.029 233.305C132.148 230.596 130.628 228.128 128.592 226.104C128.38 225.875 128.019 225.583 127.743 225.313C127.425 225.052 127.092 224.808 126.746 224.584C126.081 224.113 125.37 223.709 124.623 223.377C123.844 223.051 123.043 222.779 122.224 222.565C121.394 222.371 120.549 222.239 119.698 222.17C116.164 221.959 112.638 222.708 109.51 224.334C106.377 225.752 103.788 228.115 102.123 231.078C101.409 232.539 101.053 234.142 101.083 235.761C101.116 237.387 101.417 238.997 101.974 240.528V240.757L101.783 240.903L101.91 240.528C102.473 242.131 103.259 243.651 104.245 245.045C105.255 246.466 106.471 247.735 107.854 248.812C109.282 249.911 110.9 250.75 112.63 251.289C114.418 251.847 116.31 252.01 118.17 251.768C121.347 251.267 124.367 250.064 127 248.25V248.333Z" fill="#474B70"/>
<path d="M125.79 244.17C124.22 245.626 122.308 246.679 120.223 247.238C118.139 247.797 115.947 247.845 113.84 247.376C112.287 246.972 110.84 246.25 109.592 245.258C108.345 244.266 107.326 243.027 106.602 241.621C105.878 240.215 105.466 238.675 105.393 237.102C105.319 235.529 105.587 233.958 106.177 232.494C106.997 230.844 108.168 229.385 109.61 228.214C111.053 227.044 112.733 226.19 114.54 225.708C116.658 225.227 118.871 225.335 120.93 226.02C122.989 226.706 124.812 227.941 126.193 229.588C127.574 231.234 128.459 233.226 128.748 235.339C129.037 237.452 128.718 239.603 127.828 241.548C127.314 242.535 126.624 243.423 125.79 244.17Z" fill="#474B70"/>
<path opacity="0.21" d="M101.634 240.611C111.441 223.96 127.106 225.292 129.229 225.542L128.995 225.292C127.131 223.549 124.848 222.295 122.358 221.648C119.869 221 117.252 220.979 114.752 221.587C108.66 222.961 101.846 227.29 100.828 233.264C100.436 235.74 100.714 238.273 101.634 240.611Z" fill="#474B70"/>
<path d="M181.171 239.799C184.109 240.873 187.237 241.364 190.37 241.242C193.504 241.121 196.582 240.39 199.425 239.092C200.44 238.556 201.353 237.852 202.121 237.01C203.683 235.029 204.732 232.708 205.179 230.243C205.626 227.778 205.459 225.244 204.69 222.856C204.69 222.752 204.69 222.648 204.69 222.544C203.745 220.069 202.207 217.854 200.204 216.086C198.201 214.318 195.794 213.049 193.185 212.387C186.817 210.576 178.22 210.909 174.251 215.509C172.664 217.414 171.669 219.726 171.385 222.17C170.81 225.755 171.457 229.426 173.226 232.613C174.995 235.801 177.788 238.327 181.171 239.799Z" fill="white"/>
<path d="M176.161 236.698C174.812 235.413 173.692 233.914 172.85 232.264C172.037 230.679 171.452 228.991 171.109 227.248C170.767 225.556 170.689 223.823 170.876 222.107V221.899H171.152L170.833 222.149C171.01 220.487 171.477 218.868 172.213 217.362C172.979 215.779 174.14 214.412 175.588 213.386C178.908 211.33 182.817 210.38 186.732 210.68C188.76 210.764 190.774 211.057 192.739 211.554C194.713 212.062 196.595 212.862 198.322 213.927C201.705 215.93 204.203 219.1 205.327 222.815C206.101 225.693 206.101 228.72 205.327 231.598C204.953 233.008 204.367 234.355 203.586 235.595C202.788 236.881 201.708 237.976 200.423 238.8C199.053 239.637 197.555 240.256 195.987 240.632C194.381 241.027 192.738 241.265 191.084 241.34C187.684 241.507 184.284 241.004 181.086 239.862C179.246 239.14 177.571 238.064 176.161 236.698ZM191.147 241.131C194.341 241.027 197.446 240.07 200.126 238.363C201.306 237.53 202.273 236.44 202.949 235.178C203.62 233.958 204.099 232.646 204.371 231.286C204.918 228.512 204.735 225.647 203.841 222.961C203.841 222.648 203.565 222.232 203.438 221.857C203.31 221.483 203.098 221.108 202.886 220.754C202.463 220.018 201.973 219.322 201.421 218.673C200.862 218.01 200.252 217.391 199.595 216.82C198.929 216.236 198.219 215.7 197.473 215.218C194.243 213.373 190.596 212.343 186.86 212.22C183.278 211.859 179.669 212.586 176.522 214.302C175.136 215.16 174.002 216.358 173.232 217.778C172.436 219.173 171.897 220.695 171.64 222.274V222.503H171.364L171.682 222.253C171.438 223.902 171.438 225.578 171.682 227.227C171.917 228.953 172.425 230.631 173.19 232.202C173.973 233.877 175.067 235.394 176.416 236.677C177.842 238.033 179.531 239.095 181.383 239.799C184.511 240.893 187.834 241.346 191.147 241.131Z" fill="#474B70"/>
<path d="M192.06 237.073C189.834 237.526 187.533 237.481 185.327 236.941C183.122 236.4 181.07 235.378 179.324 233.95C174.038 229.205 174.123 221.171 179.621 217.507C181.281 216.492 183.135 215.819 185.069 215.529C187.003 215.239 188.977 215.339 190.871 215.821C201.187 218.506 203.14 231.182 195.392 235.845C194.364 236.443 193.236 236.859 192.06 237.073Z" fill="#474B70"/>
<path opacity="0.21" d="M171.195 222.253C176.282 219.32 182.1 217.832 187.999 217.953C193.899 218.074 199.648 219.801 204.606 222.94C204.606 222.836 204.606 222.732 204.606 222.628C203.661 220.153 202.123 217.937 200.12 216.169C198.117 214.401 195.71 213.132 193.101 212.47C186.733 210.659 178.136 210.992 174.167 215.592C172.541 217.485 171.509 219.798 171.195 222.253Z" fill="#474B70"/>
<path d="M237.866 283.093C237.989 284.018 238.059 284.949 238.078 285.882C238.11 286.797 237.989 287.711 237.717 288.588C237.657 288.777 237.556 288.951 237.42 289.099C237.284 289.246 237.118 289.363 236.932 289.441C236.745 289.498 236.546 289.509 236.353 289.473C236.161 289.437 235.98 289.354 235.828 289.233C235.124 288.665 234.552 287.955 234.151 287.152L233.557 286.09V287.297C233.49 288.298 233.348 289.293 233.132 290.274C232.959 291.224 232.607 292.135 232.092 292.959C231.876 293.341 231.541 293.647 231.137 293.833C230.96 293.924 230.764 293.972 230.564 293.972C230.364 293.972 230.168 293.924 229.991 293.833C229.191 293.374 228.605 292.627 228.356 291.751L228.123 291.106L227.592 291.564C226.129 292.81 224.575 293.951 222.944 294.978C221.297 295.995 219.589 296.912 217.828 297.725C216.061 298.576 214.222 299.272 212.33 299.807C210.442 300.328 208.51 300.683 206.557 300.868C208.541 300.867 210.519 300.658 212.458 300.244C214.391 299.814 216.28 299.215 218.104 298.454C219.946 297.705 221.721 296.807 223.411 295.769C225.106 294.742 226.717 293.586 228.229 292.313L227.465 292.126C227.665 292.652 227.936 293.149 228.271 293.604C228.623 294.094 229.109 294.476 229.672 294.707C229.971 294.817 230.291 294.863 230.61 294.842C230.928 294.82 231.238 294.732 231.519 294.582C232.055 294.312 232.503 293.901 232.814 293.396C233.365 292.462 233.746 291.44 233.939 290.378C234.141 289.356 234.247 288.317 234.257 287.276L233.599 287.422C234.084 288.291 234.758 289.044 235.573 289.628C235.806 289.786 236.074 289.887 236.354 289.923C236.635 289.96 236.92 289.93 237.187 289.837C237.435 289.728 237.654 289.564 237.827 289.358C238.001 289.152 238.123 288.91 238.184 288.65C238.415 287.718 238.48 286.753 238.375 285.799C238.266 284.887 238.096 283.983 237.866 283.093Z" fill="#474B70"/>
<path d="M147.548 301.014C146.062 301.014 144.577 301.014 143.091 300.847C141.605 300.681 140.098 300.681 138.654 300.493H137.954L138.379 301.035C138.916 301.658 139.268 302.414 139.397 303.22C139.417 303.391 139.4 303.564 139.349 303.729C139.298 303.893 139.213 304.046 139.1 304.178C139.028 304.274 138.922 304.341 138.803 304.365C138.667 304.343 138.536 304.294 138.421 304.219C137.795 303.684 137.264 303.051 136.85 302.346C136.391 301.619 135.973 300.869 135.598 300.098L135.088 299.036L134.749 300.181C134.541 300.896 134.271 301.592 133.942 302.263C133.686 302.872 133.268 303.404 132.732 303.803C132.605 303.803 132.626 303.803 132.732 303.803C132.614 303.71 132.537 303.576 132.52 303.428C132.408 303.113 132.343 302.783 132.329 302.45C132.276 301.715 132.276 300.978 132.329 300.244V299.723H131.798C129.495 299.662 127.205 299.369 124.963 298.849C122.701 298.387 120.544 297.527 118.595 296.31L117.64 295.665L118.065 296.726C118.454 297.582 118.636 298.516 118.595 299.453C118.607 299.549 118.607 299.647 118.595 299.744C118.39 299.717 118.19 299.661 118.001 299.578C117.555 299.369 117.131 299.12 116.706 298.87C114.987 297.788 113.395 296.539 111.803 295.311C113.263 296.714 114.816 298.021 116.451 299.224C116.863 299.535 117.303 299.807 117.767 300.035C118.03 300.192 118.33 300.278 118.638 300.285C118.753 300.287 118.865 300.25 118.956 300.181C119.041 300.111 119.113 300.026 119.168 299.931C119.227 299.798 119.27 299.658 119.296 299.515C119.422 298.454 119.268 297.379 118.85 296.393L118.298 296.809C119.271 297.506 120.317 298.099 121.418 298.578C122.527 299.008 123.661 299.369 124.815 299.661C127.123 300.225 129.485 300.553 131.862 300.639L131.374 300.098C131.299 300.894 131.299 301.695 131.374 302.492C131.411 302.918 131.504 303.337 131.65 303.74C131.747 304.019 131.933 304.26 132.18 304.427C132.34 304.511 132.519 304.555 132.7 304.555C132.882 304.555 133.06 304.511 133.22 304.427C133.972 303.921 134.538 303.192 134.834 302.346C135.179 301.628 135.463 300.883 135.683 300.119H134.812C135.212 300.92 135.658 301.699 136.15 302.45C136.63 303.261 137.273 303.969 138.039 304.531C138.298 304.693 138.602 304.773 138.909 304.76C139.071 304.742 139.227 304.69 139.366 304.608C139.505 304.525 139.625 304.414 139.716 304.282C139.888 304.078 140.013 303.841 140.082 303.586C140.152 303.331 140.164 303.064 140.119 302.804C139.948 301.879 139.513 301.021 138.867 300.327L138.612 300.785C140.108 300.909 141.611 300.951 143.112 300.91C144.577 301.159 146.062 301.118 147.548 301.014Z" fill="#474B70"/>
<path d="M286.625 461.45C276.665 461.271 266.902 464.185 258.733 469.776C257.421 470.534 256.286 471.554 255.401 472.769C254.516 473.985 253.902 475.369 253.596 476.832C253.581 478.378 254.014 479.898 254.845 481.213C255.675 482.528 256.869 483.585 258.287 484.262C261.148 485.572 264.257 486.281 267.415 486.344C279.346 487.377 291.344 487.454 303.288 486.573C308.17 486.198 313.434 485.49 316.979 482.16C322.179 477.29 319.696 469.921 313.901 467.361C305.315 463.586 296.033 461.575 286.625 461.45Z" fill="#DBDBE8"/>
<path d="M272.19 485.948C272.19 485.948 266.523 470.712 279.386 462.928L272.19 485.948Z" fill="#474B70"/>
<path d="M296.452 486.323C296.452 485.199 293.034 474.438 298.723 465.509L296.452 486.323Z" fill="#474B70"/>
<path d="M98.0244 311.253L121.248 351.663C113.826 355.294 105.9 357.746 97.7628 358.929C91.8472 359.752 85.8671 359.845 79.9573 359.208C72.5296 358.365 65.2717 356.511 58.3844 353.697C53.1159 351.568 48.0449 348.996 43.2251 346.008C32.2551 339.16 22.3519 330.762 13.8161 321.067C3.64811 309.534 12.0447 304.18 12.0447 304.18C8.84509 291.811 22.6545 287.924 22.6545 287.924C33.8144 272.671 46.7235 289.507 63.9183 300.235C74.1952 306.583 85.8873 310.36 98.0244 311.253Z" fill="#DBDBE8"/>
<path d="M26.2084 300.905C23.57 303.866 22.1468 307.702 22.2313 311.625C22.2274 313.063 22.5731 314.474 23.2386 315.737C24.0691 317.081 25.3311 318.101 26.824 318.633C28.3169 319.165 29.9548 319.18 31.4772 318.674C32.9807 318.103 34.2758 317.077 35.1799 315.742C36.084 314.408 36.5515 312.831 36.5163 311.235C36.4119 310.417 36.4266 309.587 36.5601 308.768C38.9317 308.441 41.1414 307.333 42.8391 305.622C43.6716 304.759 44.304 303.725 44.6901 302.594C45.0763 301.464 45.2063 300.267 45.0707 299.091C44.7968 297.558 43.9717 296.188 42.7496 295.238C41.5275 294.287 39.9919 293.821 38.43 293.925C33.7719 294.071 29.1939 297.517 26.2084 300.905Z" fill="#F25786"/>
<path d="M16.3078 299.824C16.7839 300.342 17.3372 300.784 17.9488 301.134C18.9335 301.622 20.0679 301.738 21.1458 301.46C22.2238 301.182 23.1735 300.528 23.8224 299.618C24.2051 299.109 24.3975 298.484 24.3655 297.855C24.2236 297.13 23.8588 296.472 23.3215 295.972C22.038 294.636 19.6582 293.17 17.7382 294.236C15.8182 295.301 14.7333 298.277 16.3078 299.824Z" fill="#F25786"/>
<path d="M11.7386 310.449C11.6866 311.114 11.8429 311.776 12.1856 312.341C12.5284 312.906 13.0407 313.348 13.6517 313.604C14.5135 313.84 15.4277 313.84 16.2983 313.601C17.0059 313.495 17.6866 313.244 18.2978 312.864C18.6095 312.677 18.8697 312.415 19.0535 312.102C19.2372 311.789 19.3384 311.436 19.3472 311.076C19.288 310.543 19.0876 310.038 18.7664 309.614C17.8991 308.282 16.1577 306.347 14.269 306.863C13.5725 307.191 12.9716 307.695 12.5272 308.325C12.0828 308.954 11.8107 309.687 11.7386 310.449Z" fill="#F25786"/>
<path d="M28.5644 290.675C29.3337 291.319 30.2761 291.726 31.28 291.847C31.9679 292.083 32.7225 292.064 33.4078 291.794C33.6829 291.614 33.9164 291.376 34.0916 291.098C34.2669 290.82 34.3798 290.508 34.4222 290.184C34.8147 287.989 33.548 284.097 30.7306 284.841C28.4951 285.517 26.8059 288.814 28.5644 290.675Z" fill="#F25786"/>
<path d="M201.017 373.614L202.205 381.524C202.221 381.476 202.221 381.425 202.205 381.378V381.544C202.955 386.956 203.578 392.375 204.073 397.8C204.625 403.233 205.177 408.665 205.538 414.119C206.196 425.025 206.663 435.953 206.429 446.901C206.196 452.375 206.005 457.829 205.389 463.303C204.792 468.778 203.698 474.19 202.12 479.475C200.613 484.762 198.363 489.882 196.771 494.961C195.883 497.502 195.751 500.238 196.389 502.85C197.213 505.436 198.531 507.845 200.274 509.947C198.337 507.951 196.841 505.584 195.88 502.995C195.072 500.277 195.072 497.388 195.88 494.67C196.517 491.964 197.493 489.404 198.321 486.802C199.149 484.2 199.998 481.619 200.677 478.997C202.03 473.757 202.994 468.429 203.564 463.053C204.116 457.662 204.243 452.229 204.413 446.797C204.604 435.932 204.413 425.046 203.797 414.16C203.585 408.728 203.245 403.274 202.863 397.842L201.738 381.524V381.69C201.674 381.63 201.636 381.548 201.632 381.461L201.017 373.614Z" fill="#474B70"/>
<path d="M256.546 400.256C256.546 405.959 256.546 411.662 256.334 417.366C256.121 423.069 255.612 428.772 255.124 434.454C254.635 440.136 253.723 445.756 252.852 451.397L251.536 459.847C251.027 462.657 250.581 465.467 249.987 468.173C250.093 465.301 250.348 462.47 250.496 459.618L251.239 451.105C251.706 445.444 252.428 439.782 253.001 434.121C253.574 428.459 254.275 422.819 254.699 417.157C255.124 411.496 255.76 405.938 256.546 400.256Z" fill="#474B70"/>
<path d="M221.267 510.155C221.267 510.155 219.336 499.748 225.322 494.94L221.267 510.155Z" fill="#474B70"/>
<path d="M204.965 509.989C204.965 509.989 202.843 502.225 206.409 496.376L204.965 509.989Z" fill="#474B70"/>
<path d="M198.979 485.761C201.543 484.466 204.315 483.614 207.173 483.242C210.028 482.851 212.917 482.76 215.791 482.972C218.671 483.235 221.516 483.786 224.282 484.616C225.652 485.031 226.998 485.517 228.315 486.073C229.61 486.677 230.883 487.28 232.114 487.988C229.334 487.364 226.617 486.698 223.878 486.198C221.14 485.698 218.381 485.324 215.642 485.053C212.882 484.824 210.111 484.762 207.343 484.866C204.535 484.949 201.739 485.248 198.979 485.761Z" fill="#474B70"/>
<path d="M254.594 472.856C256.105 470.621 257.919 468.598 259.985 466.841C261.039 465.978 262.145 465.179 263.297 464.447L265.037 463.344L266.863 462.387C271.829 459.954 277.276 458.611 282.825 458.453H287.07C288.429 458.453 289.787 458.765 291.167 458.931L293.29 459.223C293.969 459.348 294.627 459.535 295.285 459.702C296.622 460.035 297.938 460.368 299.255 460.742C301.865 461.575 304.37 462.636 306.917 463.615C309.465 464.593 311.715 466.092 314.071 467.403C311.502 466.508 309.019 465.488 306.514 464.551C304.009 463.615 301.398 462.928 298.83 462.283C296.24 461.675 293.618 461.21 290.976 460.888C289.66 460.888 288.344 460.555 287.028 460.493H283.08C277.799 460.65 272.594 461.772 267.733 463.802C262.741 465.86 258.26 468.948 254.594 472.856Z" fill="#474B70"/>
<path d="M85.0352 340.894C85.0352 340.894 74.0822 343.725 75.5256 345.993C76.969 348.262 83.2946 345.702 83.2946 345.702C83.2946 345.702 76.9266 352.487 79.2615 354.735C81.5965 356.983 85.3111 350.573 85.3111 350.573C85.3111 350.573 85.8842 363.061 90.7876 366.662C95.6909 370.263 98.2806 344.64 98.2806 344.64L85.0352 340.894Z" fill="#DBDBE8"/>
<path d="M259.008 369.784C258.983 371.597 259.5 373.377 260.494 374.904C260.72 375.223 261.014 375.49 261.354 375.687C261.695 375.885 262.075 376.008 262.468 376.049C263.126 376.153 263.53 375.758 263.912 375.029C264.549 373.384 264.908 371.647 264.973 369.888C265.104 368.066 265.139 366.239 265.079 364.414L264.867 358.503L266.99 364.039C267.513 365.438 268.48 366.634 269.749 367.453C270.392 367.816 271.133 367.976 271.872 367.911C272.593 367.911 273.379 367.765 273.612 367.453C273.773 367.213 273.875 366.94 273.912 366.655C273.948 366.37 273.919 366.081 273.825 365.809C273.646 365.034 273.383 364.28 273.039 363.561C272.331 362.035 271.479 360.579 270.492 359.211L269.919 358.399L270.832 358.149C271.651 357.917 272.436 357.581 273.167 357.15C273.929 356.714 274.641 356.197 275.289 355.61C276.582 354.378 277.507 352.823 277.964 351.114C277.883 352.023 277.661 352.914 277.306 353.757C276.957 354.621 276.478 355.428 275.884 356.151C275.275 356.893 274.56 357.545 273.761 358.087C272.959 358.637 272.089 359.084 271.171 359.419L271.511 358.378C272.685 359.756 273.723 361.241 274.61 362.811C275.082 363.628 275.439 364.503 275.671 365.413C275.852 365.97 275.894 366.56 275.794 367.136C275.694 367.712 275.456 368.256 275.098 368.723C274.676 369.19 274.122 369.523 273.506 369.68C273.002 369.824 272.482 369.908 271.957 369.93C270.886 369.983 269.821 369.746 268.879 369.243C267.104 368.22 265.769 366.6 265.122 364.685L267.138 364.331C267.209 366.249 267.131 368.169 266.905 370.076C266.775 372.06 266.241 374 265.334 375.779C265.037 376.294 264.623 376.735 264.124 377.069C263.844 377.245 263.53 377.363 263.202 377.417C262.873 377.471 262.537 377.459 262.214 377.381C261.665 377.263 261.147 377.033 260.693 376.707C260.24 376.381 259.861 375.965 259.582 375.487C258.736 373.705 258.534 371.694 259.008 369.784Z" fill="#474B70"/>
<path d="M311.183 384.063C309.061 385.124 306.726 385.998 304.603 387.018C301.101 388.746 297.704 391.181 293.778 391.181C292.978 391.255 292.172 391.134 291.431 390.829C290.691 390.524 290.039 390.044 289.532 389.433C289.15 388.802 288.938 388.085 288.917 387.351C288.789 384.125 291.358 381.44 293.884 379.359C297.057 376.62 300.466 374.154 304.072 371.991C306.865 375.761 309.248 379.807 311.183 384.063Z" fill="#474B70"/>
<path d="M319.419 421.362C312.392 422.557 305.164 421.77 298.575 419.093C297.138 418.564 295.824 417.757 294.712 416.72C294.152 416.19 293.736 415.533 293.499 414.806C293.262 414.08 293.212 413.307 293.353 412.558C293.841 410.476 295.985 409.394 297.938 408.665C304.349 406.547 311.085 405.533 317.849 405.668C318.752 410.856 319.277 416.101 319.419 421.362Z" fill="#474B70"/>
<path d="M318.74 439.928C318.294 444.403 317.636 449.066 316.766 453.999C312.24 453.866 307.838 452.528 304.03 450.127C301.907 448.712 300.124 446.214 301.164 443.883C301.626 443.15 302.245 442.525 302.978 442.05C303.711 441.576 304.541 441.264 305.409 441.135C309.755 440.019 314.259 439.611 318.74 439.928Z" fill="#474B70"/>
<path d="M167.352 372.24C166.163 371.045 164.83 369.996 163.382 369.118C162.74 368.736 162.01 368.521 161.26 368.494C160.973 368.512 160.702 368.63 160.495 368.827C160.495 368.931 160.368 368.993 160.347 369.097C160.326 369.201 160.347 369.284 160.347 369.451C160.506 370.144 160.826 370.792 161.281 371.345C161.768 371.991 162.293 372.61 162.852 373.198C164.013 374.385 165.239 375.511 166.524 376.569L169.283 378.901L165.632 378.359C164.231 378.124 162.807 378.041 161.387 378.11C160.783 378.142 160.189 378.269 159.625 378.484C159.179 378.713 159.116 378.838 159.137 379.13C159.137 379.775 160.432 380.774 161.599 381.378C162.855 382.027 164.161 382.576 165.505 383.022L166.991 383.563L165.781 384.458C164.965 385.037 164.248 385.739 163.658 386.539C163.08 387.364 162.669 388.289 162.448 389.266C162.19 390.253 162.154 391.283 162.342 392.284C162.538 393.326 162.866 394.34 163.319 395.302C162.652 394.426 162.136 393.449 161.79 392.409C161.419 391.346 161.289 390.217 161.408 389.1C161.54 387.956 161.893 386.847 162.448 385.832C162.989 384.809 163.707 383.886 164.571 383.105L164.847 384.541C163.38 384.168 161.957 383.645 160.602 382.98C159.847 382.647 159.134 382.227 158.479 381.731C157.676 381.147 157.118 380.296 156.908 379.338C156.812 378.742 156.948 378.132 157.29 377.631C157.429 377.376 157.625 377.156 157.863 376.986C158.059 376.803 158.29 376.662 158.543 376.569C159.339 376.218 160.196 376.02 161.069 375.987C162.633 375.929 164.199 376.041 165.738 376.32L164.889 378.068C163.568 376.915 162.334 375.67 161.196 374.342C160.604 373.695 160.072 372.999 159.604 372.261C159.03 371.453 158.679 370.514 158.585 369.534C158.583 369.228 158.641 368.924 158.755 368.639C158.902 368.36 159.096 368.107 159.328 367.89C159.794 367.549 160.36 367.367 160.941 367.37C161.912 367.467 162.83 367.852 163.573 368.473C165.036 369.516 166.312 370.789 167.352 372.24Z" fill="#474B70"/>
<path d="M238.44 249.998C237.064 250.134 235.677 250.134 234.301 249.998C234.025 250.019 233.749 250.019 233.473 249.998C231.519 249.851 229.693 248.989 228.357 247.584C227.726 246.693 227.376 245.641 227.349 244.556C227.323 243.472 227.622 242.404 228.209 241.485C229.062 240.161 230.245 239.072 231.648 238.322C232.058 238.075 232.483 237.852 232.921 237.655C235.139 241.597 236.986 245.728 238.44 249.998Z" fill="#474B70"/>
<path d="M230.82 234.055H230.013C228.509 234.12 227.011 233.834 225.641 233.222C225.107 233.015 224.664 232.633 224.388 232.14C224.214 231.676 224.214 231.167 224.388 230.704C224.865 229.636 225.592 228.695 226.511 227.956L226.681 227.831C227.275 228.768 227.848 229.746 228.379 230.724C229.265 231.781 230.081 232.894 230.82 234.055Z" fill="#474B70"/>
<path d="M241.9 264.069C239.737 264.149 237.61 263.503 235.872 262.237C235.515 262.023 235.206 261.742 234.962 261.41C234.718 261.077 234.544 260.7 234.45 260.301C234.393 259.765 234.512 259.226 234.789 258.761C235.206 258.044 235.767 257.418 236.439 256.92C237.11 256.423 237.878 256.065 238.695 255.868L240.096 255.514C240.775 258.157 241.412 261.009 241.9 264.069Z" fill="#474B70"/>
<path d="M260.474 316.354C260.019 316.811 259.537 317.242 259.03 317.644C256.61 319.601 253.897 321.181 250.986 322.328C247.832 323.798 244.241 324.094 240.882 323.16C239.236 322.629 237.842 321.531 236.96 320.068C236.077 318.606 235.766 316.879 236.084 315.209C237.149 312.855 238.998 310.924 241.327 309.735C244.044 307.945 246.698 306.051 249.287 304.094L249.861 303.636C253.615 307.697 257.158 311.941 260.474 316.354Z" fill="#474B70"/>
<path d="M275.629 343.6C271.917 344.412 268.069 344.412 264.357 343.6C262.091 343.36 259.992 342.317 258.456 340.665C257.832 340.054 257.401 339.279 257.216 338.433C257.032 337.587 257.101 336.707 257.416 335.899C258.944 332.381 265.461 330.112 268.985 329.259C271.613 333.844 273.836 338.642 275.629 343.6Z" fill="#474B70"/>
<path d="M63.2865 336.373C63.8925 338.236 63.8949 340.253 63.293 342.14C62.3186 346.209 60.675 350.1 58.4298 353.653C53.1614 351.524 48.0904 348.952 43.2705 345.964C44.1669 344.323 45.121 342.742 46.149 341.178C47.655 338.634 49.6471 336.406 52.0091 334.624C53.8178 333.348 56.001 332.729 58.187 332.873C59.2766 332.958 60.3197 333.326 61.2138 333.939C62.1079 334.553 62.8222 335.392 63.2865 336.373Z" fill="#474B70"/>
<path d="M97.8547 349.344C98.9495 352.411 98.9331 355.785 97.8081 358.885C91.8926 359.708 85.9125 359.801 80.0027 359.164C80.5451 354.65 82.5519 350.41 85.7151 347.095C86.6962 346.013 87.9267 345.188 89.2955 344.694C91.0619 344.323 92.8904 344.586 94.4571 345.438C96.0237 346.289 97.2274 347.672 97.8547 349.344Z" fill="#474B70"/>
<path d="M225.131 459.535C222.912 460.804 220.446 461.598 217.892 461.866C213.453 462.567 208.972 462.977 204.477 463.094C204.689 461.179 204.88 459.16 205.008 456.996C205.199 453.936 205.326 450.751 205.39 447.546C209.865 446.895 214.403 446.756 218.911 447.13C220.953 447.26 222.949 447.776 224.791 448.649C225.713 449.086 226.521 449.724 227.154 450.514C227.787 451.304 228.227 452.225 228.442 453.207C228.548 454.46 228.295 455.717 227.709 456.836C227.124 457.954 226.231 458.889 225.131 459.535Z" fill="#474B70"/>
<path d="M255.188 422.86C254.806 427.252 254.36 431.727 253.893 436.036H252.619C248.614 435.898 244.654 435.154 240.881 433.83C238.567 432.997 236.084 431.561 235.68 429.167C235.277 426.774 237.697 424.151 240.287 423.173C244.086 422.018 248.113 421.783 252.025 422.486C253.086 422.548 254.148 422.715 255.188 422.86Z" fill="#474B70"/>
<path d="M222.753 397.842C222.437 398.819 221.906 399.717 221.198 400.472C220.491 401.227 219.623 401.821 218.657 402.213C214.152 404.496 209.202 405.808 204.138 406.063C203.671 399.444 203.14 393.429 202.652 388.413C207.655 388.274 212.636 389.124 217.298 390.911C220.249 392.159 223.369 394.74 222.753 397.842Z" fill="#474B70"/>
<path d="M106.028 376.778C106.028 379.588 103.142 381.502 100.594 382.793C96.6669 384.791 92.5687 386.449 88.3466 387.747C86.8174 383.15 85.6465 378.447 84.8442 373.676C87.7218 372.659 90.6831 371.886 93.6957 371.366C96.5103 370.712 99.4571 370.864 102.186 371.803C103.247 372.181 104.175 372.852 104.856 373.734C105.538 374.617 105.945 375.674 106.028 376.778Z" fill="#474B70"/>
<path d="M79.6435 169.967C79.6435 169.967 98.7475 194.612 105.243 193.467C110.677 192.509 101.528 159.019 101.528 159.019C101.528 159.019 130.036 140.286 121.778 98.2624C113.521 56.2385 49.4805 59.3606 20.1453 95.4317C-9.18986 131.503 1.0414 163.078 22.6289 174.422C44.2163 185.765 79.6435 169.967 79.6435 169.967Z" fill="#82D3FF"/>
<path d="M77.1916 99.8234C78.943 104.306 78.943 109.265 77.1916 113.748C76.5772 115.338 75.7795 116.853 74.8142 118.265C73.6483 119.901 72.6326 121.635 71.7788 123.448C71.2681 124.483 70.9381 125.594 70.8024 126.736C70.7324 127.49 70.8564 128.248 71.1632 128.943C71.4723 129.575 71.7348 130.229 71.9486 130.899C72.1335 132.016 71.8943 133.16 71.2762 134.115C70.658 135.071 69.704 135.77 68.5948 136.082C67.9612 136.454 67.2237 136.62 66.4879 136.557C65.7521 136.493 65.0557 136.203 64.4981 135.728C63.5228 134.797 62.7438 133.686 62.2056 132.46C61.7923 131.419 61.4935 130.337 61.3141 129.234C61.107 127.967 61.0713 126.68 61.208 125.404C61.3808 123.978 61.7375 122.579 62.2693 121.241C62.8874 119.734 63.7395 118.33 64.7953 117.078C66.0585 115.501 67.114 113.774 67.9368 111.937C68.6345 109.931 68.8877 107.803 68.6798 105.693C68.6753 104.133 68.0978 102.626 67.0532 101.449C66.0085 100.271 64.5665 99.5023 62.991 99.2822C62.0281 99.1265 61.0458 99.1265 60.0829 99.2822C59.3587 99.3709 58.6467 99.5385 57.9603 99.7818C57.0837 100.138 56.2448 100.577 55.4556 101.093C54.6706 101.641 54.0183 102.352 53.5452 103.174C52.9413 104.238 52.5183 105.391 52.2928 106.588C51.9315 108.33 51.7185 110.098 51.656 111.875C51.4932 112.516 51.1718 113.108 50.7201 113.598C50.2683 114.088 49.7003 114.461 49.0663 114.685C47.7905 115.176 46.3727 115.176 45.097 114.685C44.4067 114.447 43.7786 114.062 43.2575 113.558C42.7364 113.055 42.3353 112.444 42.0828 111.771C41.8249 108.703 42.1708 105.615 43.1017 102.675C43.8878 100.424 45.0577 98.3192 46.5616 96.4515C47.7301 94.9519 49.169 93.675 50.8069 92.6841C52.0214 91.9517 53.2836 91.2981 54.5853 90.7276C57.0549 89.6084 59.7398 89.0194 62.4603 89C64.5725 89.0498 66.6467 89.5618 68.5312 90.4986C72.0178 92.3829 74.866 95.2264 76.7246 98.6786C76.8307 99.0533 77.0218 99.4279 77.1916 99.8234ZM80.5242 148.112C80.795 148.772 80.8687 149.494 80.7365 150.194C80.6101 150.927 80.3513 151.632 79.9723 152.275C79.5743 152.957 79.0893 153.587 78.5289 154.149C78.0319 154.675 77.433 155.1 76.7671 155.397C75.4347 156.001 73.9892 156.327 72.5218 156.355C71.4951 156.373 70.4803 156.136 69.5712 155.668C68.8165 155.241 68.1649 154.658 67.6609 153.961C67.1994 153.312 66.8148 152.614 66.5146 151.88C65.8077 150.165 65.7031 148.268 66.2175 146.489C66.4185 145.591 66.841 144.756 67.4479 144.055C68.0548 143.355 68.8276 142.811 69.6986 142.472C70.4555 142.178 71.2367 141.948 72.0335 141.785C72.9672 141.572 73.9419 141.608 74.8567 141.889C75.9763 142.268 76.9878 142.903 77.8072 143.741C78.9887 145.015 79.9109 146.499 80.5242 148.112Z" fill="#30A8FF"/>
<path d="M189.156 144.548C189.156 144.548 176.587 179.757 181.937 185.581C186.411 190.453 214.343 159.593 214.343 159.593C214.343 159.593 251.671 176.304 288.801 140.837C325.931 105.369 281.44 42.6793 226.06 36.3229C170.68 29.9664 145.381 60.6846 147.854 89.8178C150.327 118.951 189.156 144.548 189.156 144.548Z" fill="#82D3FF"/>
<path d="M50.2082 502.437C50.2082 502.437 44.2286 518.691 45.9426 520.047C47.6566 521.403 84.5277 510.612 122.918 526.999C122.918 526.999 161.445 510.382 192.511 518.882C192.989 519.018 193.496 519.028 193.979 518.91C194.462 518.793 194.905 518.553 195.263 518.213C195.621 517.874 195.881 517.448 196.017 516.978C196.153 516.509 196.159 516.012 196.037 515.539L190.797 495.466L50.2082 502.437Z" fill="#E52E6B"/>
<path d="M123.229 517.908C123.229 517.908 88.7151 500.279 54.2593 511.777L47.8901 497.662L57.2588 453.028L123.093 467.868L180.961 446.056L193.446 494.377L189.434 511.108C189.434 511.108 162.107 504.042 123.229 517.908Z" fill="#E0F2FF"/>
<path d="M187.505 491.78C143.31 489.373 122.859 516.609 122.859 516.609L123.093 465.824C141.265 436.793 168.904 438.951 185.849 440.097C186.512 457.382 187.33 479.69 187.505 491.78Z" fill="#82D3FF"/>
<path d="M123.093 465.977L122.86 516.551C122.86 516.551 98.5711 484.255 45.709 493.231C47.0529 479.365 49.2734 457.134 50.9095 441.033C68.6536 437.977 107.219 438.188 123.093 465.977Z" fill="#82D3FF"/>
<path d="M190.836 504.003C188.886 503.214 186.855 502.631 184.778 502.265C182.713 501.874 180.625 501.606 178.526 501.463C174.319 501.157 170.097 501.119 165.885 501.348L169.041 501.005L172.215 500.833C174.333 500.778 176.453 500.829 178.565 500.986C180.682 501.146 182.784 501.453 184.856 501.902C186.939 502.329 188.951 503.036 190.836 504.003Z" fill="white"/>
<path d="M123.093 465.977C123.249 474.399 123.093 482.841 123.21 491.264C123.327 499.687 123.113 508.129 122.86 516.551C122.684 508.109 122.86 499.687 122.723 491.264C122.587 482.841 122.84 474.399 123.093 465.977Z" fill="white"/>
<path d="M193.446 494.377C190.316 494.04 187.168 493.893 184.019 493.938C180.864 493.938 177.728 494.091 174.592 494.339C168.325 494.89 162.127 496.041 156.089 497.777C154.608 498.235 153.05 498.56 151.589 499.133L147.187 500.737C145.726 501.31 144.324 502.017 142.883 502.647L140.74 503.621L138.695 504.767C137.351 505.55 135.968 506.276 134.624 507.078L130.729 509.752C130.086 510.191 129.404 510.612 128.781 511.089L126.97 512.579L123.366 515.577C127.896 511.261 132.976 507.537 138.481 504.5L140.526 503.316L142.668 502.322C144.11 501.673 145.512 500.966 146.973 500.413L151.394 498.751C152.855 498.178 154.394 497.834 155.894 497.357C161.977 495.666 168.213 494.56 174.514 494.053C180.819 493.497 187.166 493.606 193.446 494.377Z" fill="white"/>
<path d="M47.8901 497.662C54.4644 496.425 61.1411 495.786 67.8352 495.752C74.542 495.675 81.2407 496.232 87.8386 497.414C91.1321 498.052 94.3841 498.881 97.5774 499.897C100.752 500.948 103.844 502.225 106.829 503.717C109.792 505.251 112.614 507.034 115.263 509.045C117.857 511.124 120.244 513.439 122.392 515.959C117.971 511.035 112.637 506.978 106.673 504.003C103.696 502.51 100.61 501.233 97.4411 500.183C94.2474 499.189 90.9952 498.385 87.7023 497.777C81.1404 496.558 74.4747 495.957 67.7962 495.982C61.1257 496.019 54.4689 496.581 47.8901 497.662Z" fill="white"/>
<path d="M50.5786 503.564C56.8449 502.375 63.2068 501.736 69.5887 501.654C75.9712 501.516 82.3534 501.945 88.6573 502.934C94.9771 503.903 101.156 505.608 107.064 508.014C112.978 510.436 118.482 513.727 123.386 517.774H123.094C127.118 514.852 131.447 512.355 136.007 510.325C140.554 508.279 145.289 506.661 150.148 505.493C155.009 504.324 159.986 503.684 164.99 503.583C169.988 503.542 174.974 504.061 179.851 505.13C174.967 504.123 169.98 503.674 164.99 503.793C160.012 503.903 155.062 504.544 150.226 505.703C145.391 506.884 140.682 508.515 136.163 510.573C131.652 512.615 127.37 515.111 123.386 518.022L123.23 518.137L123.094 518.022C118.209 514.023 112.748 510.753 106.888 508.32C101.022 505.896 94.8823 504.165 88.5988 503.163C82.3171 502.148 75.9542 501.694 69.5887 501.807C63.2124 501.857 56.8522 502.445 50.5786 503.564Z" fill="white"/>
<path d="M52.3901 507.823C56.1285 506.849 59.938 506.16 63.7845 505.76C67.6629 505.319 71.572 505.198 75.4711 505.397C73.5233 505.397 71.5755 505.569 69.6278 505.703C67.68 505.837 65.7323 506.009 63.7845 506.238C61.8368 506.467 59.889 506.677 58.0581 506.925C56.2272 507.174 54.2989 507.479 52.3901 507.823Z" fill="white"/>
<path d="M163.315 84.4632L183.249 93.6271L178.461 104.041L187.342 108.124L192.13 97.7097L197.369 100.118L200.894 92.4511L195.654 90.0426L207.902 63.3997L197.424 58.5828L166.281 78.0101L163.315 84.4632ZM176.103 81.055L194.41 69.3481L186.773 85.96L176.103 81.055Z" fill="#30A8FF"/>
<path d="M238.442 104.527C245.433 89.3206 244.887 79.3956 233.642 74.2263C222.461 69.0863 214.573 75.1343 207.582 90.3406C200.563 105.611 201.138 115.472 212.319 120.612C223.564 125.781 231.423 119.797 238.442 104.527ZM216.719 94.5407C221.066 85.0847 224.334 80.1635 229.765 82.66C235.26 85.186 233.653 90.8708 229.306 100.327C224.929 109.847 221.69 114.704 216.196 112.178C210.765 109.682 212.343 104.061 216.719 94.5407Z" fill="#30A8FF"/>
<path d="M237.689 118.653L257.623 127.817L252.836 138.231L261.717 142.314L266.504 131.9L271.743 134.308L275.268 126.641L270.029 124.233L282.276 97.5897L271.798 92.7728L240.655 112.2L237.689 118.653ZM250.478 115.245L268.784 103.538L261.148 120.15L250.478 115.245Z" fill="#30A8FF"/>
</svg>
